<?xml version="1.0" encoding="utf-8"?>
<!-- Generator: Adobe Illustrator 22.1.0, SVG Export Plug-In . SVG Version: 6.00 Build 0)  -->
<svg version="1.1" id="Layer_1" xmlns="http://www.w3.org/2000/svg" xmlns:xlink="http://www.w3.org/1999/xlink" x="0px" y="0px"
	 viewBox="0 0 31.7 34.5" style="enable-background:new 0 0 31.7 34.5;" xml:space="preserve">
<style type="text/css">
	.st0{fill:#727272;}
</style>
<g id="login" transform="translate(0 0)">
	<g id="Group_33" transform="translate(0)">
		<g id="Group_32" transform="translate(0)">
			<path id="Path_6" class="st0" d="M10.3,18.9c-0.3,0.3-0.3,0.7,0,1c0.3,0.3,0.7,0.3,1,0l4.3-4.3c0.1-0.1,0.1-0.1,0.2-0.2
				c0-0.1,0-0.1,0-0.2c0,0,0-0.1,0-0.1c0-0.1,0-0.1,0-0.2c0,0,0-0.1,0-0.1c0-0.1-0.1-0.2-0.2-0.2l-4.3-4.3c-0.3-0.3-0.7-0.3-1,0
				c-0.3,0.3-0.3,0.7,0,1l3.1,3.1H0.7c-0.4,0-0.7,0.3-0.7,0.7s0.3,0.7,0.7,0.7l0,0h12.7L10.3,18.9z"/>
			<path id="Path_7" class="st0" d="M28.6,0c-0.1,0-0.2,0-0.3,0c-0.1,0-0.1,0-0.2,0H10.8c-2,0-3.6,1.6-3.6,3.6c0,0,0,0,0,0v7.2
				c0,0.4,0.3,0.7,0.7,0.7s0.7-0.3,0.7-0.7V3.6c0-1.2,1-2.2,2.2-2.2h13.8l-5.4,2.3c-1.1,0.5-1.9,1.6-1.9,2.9v22.2h-6.5
				c-0.8,0-1.6-0.4-2.1-1l0-8.3c0-0.4-0.3-0.7-0.7-0.7l0,0c-0.4,0-0.7,0.3-0.7,0.7c0,0,0,0,0,0l0,8.4c0,0.4,0.2,0.8,0.5,1
				c0.8,0.9,1.9,1.4,3.1,1.4h6.5v1.2c0,1.7,1.4,3.1,3.1,3.1c0.4,0,0.8-0.1,1.2-0.3l8.2-3.5c1.1-0.5,1.9-1.6,1.9-2.9V3.1
				C31.7,1.4,30.3,0,28.6,0z M30.2,27.9c0,0.7-0.4,1.3-1,1.5L21,33c-0.2,0.1-0.4,0.1-0.7,0.1c-0.9,0-1.7-0.7-1.7-1.7V6.6
				c0-0.7,0.4-1.3,1-1.5l8.2-3.5c0.2-0.1,0.4-0.1,0.7-0.1c0.9,0,1.7,0.7,1.7,1.7V27.9z"/>
			<path id="Path_8" class="st0" d="M20.9,15.8c-0.4,0-0.7,0.3-0.7,0.7l0,0v2.9c0,0.4,0.3,0.7,0.7,0.7s0.7-0.3,0.7-0.7v-2.9
				C21.6,16.2,21.3,15.8,20.9,15.8L20.9,15.8z"/>
		</g>
	</g>
</g>
</svg>
