<svg xmlns="http://www.w3.org/2000/svg" width="38.527" height="38.234" viewBox="0 0 38.527 38.234">
  <g id="zlfGiS" transform="translate(-1274 -110.904)">
    <g id="Group_162" data-name="Group 162" transform="translate(1274 110.904)">
      <path id="Path_71" data-name="Path 71" d="M1274,142.591c.14-.582.235-1.178.427-1.742a6.7,6.7,0,0,1,3.419-3.786c1.282-.673,2.653-1.173,3.968-1.787a26.562,26.562,0,0,0,2.35-1.241,1.434,1.434,0,0,0,.761-1.411,4.725,4.725,0,0,1,.022-.6,3.336,3.336,0,0,0-.583-2.384,11.2,11.2,0,0,1-1.045-2.39,1.213,1.213,0,0,0-.323-.465,3.244,3.244,0,0,1-1.087-2.043,2.808,2.808,0,0,1,.35-2.307.618.618,0,0,0,0-.425,15.9,15.9,0,0,1-.448-4.4,7.148,7.148,0,0,1,1.441-4.231,5.567,5.567,0,0,1,2.426-1.779,9.158,9.158,0,0,1,5.892-.369,3.416,3.416,0,0,1,1.227.624,4,4,0,0,0,1.286.7,4.525,4.525,0,0,1,2.948,3.768,12.183,12.183,0,0,1-.261,4.995,1.69,1.69,0,0,1-.044.182,1.714,1.714,0,0,0,.1,1.475,3.7,3.7,0,0,1-1.068,3.852.679.679,0,0,0-.243.387,8.329,8.329,0,0,1-1.483,3.134.639.639,0,0,0-.116.377c0,.727.014,1.454.031,2.181a1.576,1.576,0,0,0,.786,1.2l-.9,1.221a2.681,2.681,0,0,1-1.372-1.929c-.124-1.142-.076-2.3-.091-3.456a.4.4,0,0,1,.119-.288,4.635,4.635,0,0,0,1.433-2.5,7.488,7.488,0,0,0,.234-1.177c.03-.2.085-.332.313-.334.473,0,.684-.322.8-.715a6.717,6.717,0,0,0,.18-.881.874.874,0,0,0-.4-.942c-.277-.172-.276-.38-.186-.664a14.97,14.97,0,0,0,.772-4.161,6.471,6.471,0,0,0-.376-2.586,2.8,2.8,0,0,0-2.2-1.839,1.333,1.333,0,0,1-.98-.571,1.931,1.931,0,0,0-1.372-.7,7.98,7.98,0,0,0-4.671.543,4.3,4.3,0,0,0-2.479,3.114,12.316,12.316,0,0,0,.25,5.618,2.949,2.949,0,0,0,.091.364c.148.409.166.763-.282,1.023a.606.606,0,0,0-.23.41,2.449,2.449,0,0,0,.418,1.745.664.664,0,0,0,.452.213c.308.022.394.186.424.453a6.172,6.172,0,0,0,.839,2.55,9.9,9.9,0,0,0,.795.981.6.6,0,0,1,.169.3c0,1-.027,2.005-.03,3.008a2.745,2.745,0,0,1-1.325,2.315,17.082,17.082,0,0,1-2.387,1.327c-1.358.638-2.777,1.152-4.112,1.833a5.214,5.214,0,0,0-2.913,3.5c-.022.095-.037.192-.061.319h.477q8.107,0,16.215-.008c.336,0,.491.086.562.419.078.363.22.713.344,1.1-.148.008-.258.018-.368.018h-18.622c-.087,0-.175-.011-.262-.016Z" transform="translate(-1274 -110.904)" fill="#727272"/>
      <path id="Path_72" data-name="Path 72" d="M1548.814,391.86a18.223,18.223,0,0,1-2.574-.648,8.936,8.936,0,0,1-5.778-7.168,9.228,9.228,0,0,1,5.4-9.9,9.247,9.247,0,0,1,12.891,7.389c.013.109.046.215.069.323v1.505c-.046.256-.09.513-.138.769a9.016,9.016,0,0,1-5.829,7.107,18.37,18.37,0,0,1-2.536.627Zm8.46-9.263a7.7,7.7,0,1,0-7.682,7.715A7.689,7.689,0,0,0,1557.274,382.6Z" transform="translate(-1520.295 -353.626)" fill="#727272"/>
      <path id="Path_73" data-name="Path 73" d="M1602,440.5v-1.537h3.818V435.12h1.536v3.813h3.849v1.543h-.412c-1.016,0-2.031.009-3.047-.006-.289,0-.392.068-.386.375.019,1.015.007,2.031.007,3.046v.424h-1.523V440.5Z" transform="translate(-1577.315 -410.723)" fill="#727272"/>
    </g>
  </g>
</svg>
