<?xml version="1.0" encoding="utf-8"?>
<!-- Generator: Adobe Illustrator 22.1.0, SVG Export Plug-In . SVG Version: 6.00 Build 0)  -->
<svg version="1.1" id="Layer_1" xmlns="http://www.w3.org/2000/svg" xmlns:xlink="http://www.w3.org/1999/xlink" x="0px" y="0px"
	 viewBox="0 0 217.1 214" style="enable-background:new 0 0 217.1 214;" xml:space="preserve">
<style type="text/css">
	.st0{fill:#D8C070;}
</style>
<g id="Group_163" transform="translate(0.001)">
	<path id="Path_75" class="st0" d="M211.7,110.6c2.3-5,5.8-9.8,5.4-15.4c-0.2-2.5-1.2-4.9-2.9-6.9c-0.3-0.4-0.7-0.7-1.1-1
		c-10.4-7.5-14-17.4-11.7-30.1c1.5-8.6-2.8-13.7-12.3-15.6c-11.1-2.2-18.1-8.3-21.8-19.1c-3.4-9.9-8.8-12.7-19-9.9
		c-10,2.8-20.7,0.2-28.3-6.9c-8-7.5-13.5-7.5-21.4-0.1C90.3,13.5,81,15.7,70,12.5c-9.6-2.8-15.2,0.1-18.4,9.3
		c-3.8,11-10.8,17.6-22.5,19.8c-9.5,1.8-13.5,7.5-11.8,17c2,11.5-1.5,20.2-10.4,27.5c-8.2,6.8-9,12.4-2.7,20.7
		c7,9.2,8.1,18.6,3.6,29.2c-3.9,9.1-1.6,15.2,7.3,19.3c10.6,5,16.2,12.8,17.1,24.6c0.6,9.3,5.9,13.9,15.2,13.4
		c12.2-0.7,21.2,3.9,27.2,14.5c4.8,5.3,10.6,7.3,17.6,5.5c10.4-7,20.8-7.9,31.3-1.9c2.5,1.5,5.3,2.4,8.2,2.5h0.3
		c5.4-0.1,10.4-2.9,13.2-7.5l0-0.1c5.7-9.2,13.8-13.3,24.7-13c11.6,0.3,15.7-3.3,16.9-15.1c1-10.4,6.1-17.5,15.4-22.1
		c10.8-5.4,12.8-10.2,8.3-21.5C207,126.2,207.1,118.3,211.7,110.6z M110.6,193.3c-48.3,0.3-87.6-37.8-87.8-84.9
		C22.6,60.7,61,22.2,109.1,21.9c47.5-0.3,86.3,38,86.7,85.5C196.1,153.9,157.3,193,110.6,193.3L110.6,193.3z"/>
	<path id="Path_76" class="st0" d="M126.1,118.1c1-0.5,1.8-1.3,2.4-2.2c0.8-1.2,1.3-2.6,1.7-4.1c0.4-2.1,0.7-4.2,0.6-6.3
		c0-2.1-0.2-4.2-0.6-6.3c-0.3-1.4-0.9-2.8-1.7-4.1c-0.6-0.9-1.4-1.7-2.4-2.2c-0.9-0.4-1.8-0.6-2.8-0.6c-1,0-1.9,0.2-2.8,0.6
		c-1,0.5-1.8,1.3-2.4,2.2c-0.8,1.3-1.3,2.6-1.6,4.1c-0.4,2.1-0.6,4.2-0.6,6.3c0,2.1,0.2,4.2,0.6,6.3c0.3,1.4,0.9,2.8,1.6,4.1
		c0.6,0.9,1.4,1.7,2.4,2.2c0.9,0.4,1.8,0.7,2.8,0.7C124.2,118.8,125.2,118.5,126.1,118.1z"/>
	<path id="Path_77" class="st0" d="M77.4,77.4c0.7,0.8,1.6,1.4,2.6,1.8c1.1,0.4,2.2,0.7,3.4,0.6c1.2,0,2.3-0.2,3.4-0.6
		c1-0.4,1.9-1,2.6-1.8c0.8-0.8,1.3-1.8,1.7-2.9c0.4-1.3,0.6-2.6,0.6-3.9c0-1.3-0.2-2.6-0.6-3.9c-0.4-1.1-0.9-2.1-1.7-2.9
		c-0.7-0.8-1.6-1.4-2.6-1.8c-1.1-0.4-2.2-0.7-3.4-0.6c-1.2,0-2.3,0.2-3.4,0.6c-1,0.4-1.9,1-2.6,1.8c-0.8,0.9-1.3,1.9-1.7,2.9
		c-0.4,1.3-0.6,2.6-0.6,3.9c0,1.3,0.2,2.6,0.6,3.9C76.1,75.5,76.7,76.5,77.4,77.4z"/>
	<path id="Path_78" class="st0" d="M128.3,141.2c0.5-0.4,0.8-0.8,1.1-1.4c0.3-0.6,0.4-1.2,0.4-1.8c0.1-1.2-0.4-2.3-1.3-3
		c-1.2-0.7-2.5-1.1-3.9-1H121v8.3h3.4c0.8,0,1.5-0.1,2.3-0.3C127.2,141.9,127.8,141.6,128.3,141.2z"/>
	<path id="Path_79" class="st0" d="M101.5,95.2c-0.6-0.9-1.4-1.7-2.4-2.2c-0.9-0.4-1.8-0.6-2.8-0.6c-1,0-1.9,0.2-2.8,0.6
		c-1,0.5-1.8,1.3-2.4,2.2c-0.8,1.3-1.3,2.6-1.6,4.1c-0.4,2.1-0.6,4.2-0.6,6.3c0,2.1,0.2,4.2,0.6,6.3c0.3,1.4,0.9,2.8,1.6,4.1
		c0.6,0.9,1.4,1.7,2.4,2.2c0.9,0.4,1.8,0.7,2.8,0.7c1,0,1.9-0.2,2.8-0.7c1-0.5,1.8-1.3,2.4-2.2c0.8-1.2,1.3-2.6,1.6-4.1
		c0.4-2.1,0.7-4.2,0.6-6.3c0-2.1-0.2-4.2-0.6-6.3C102.8,97.8,102.3,96.4,101.5,95.2z"/>
	<path id="Path_80" class="st0" d="M138.1,70.2c0.7-0.2,1.3-0.5,1.9-0.9c0.5-0.4,0.9-0.9,1.2-1.5c0.3-0.6,0.4-1.3,0.4-2
		c0.1-1.3-0.5-2.5-1.5-3.3c-1.3-0.8-2.8-1.2-4.2-1.1h-3.9v9.1h3.7C136.4,70.5,137.3,70.4,138.1,70.2z"/>
	<path id="Path_81" class="st0" d="M109,32.6c-41.7,0.2-75.7,34-75.4,75.1c0.3,41.5,34.2,75,75.8,74.8c42.1-0.1,75.9-33.8,75.7-75.4
		C184.8,65.9,150.7,32.4,109,32.6z M131.1,60.8h4.7c1.7-0.1,3.4,0.3,4.8,1.2c1.1,0.9,1.8,2.3,1.7,3.7c0,0.7-0.1,1.4-0.4,2.1
		c-0.3,0.6-0.7,1.2-1.2,1.6c-0.6,0.5-1.2,0.9-1.9,1.1c-0.8,0.3-1.6,0.4-2.5,0.5c0.2,0.1,0.4,0.2,0.5,0.4l7.3,8.8h-0.6
		c-0.1,0-0.2,0-0.3,0c-0.1,0-0.2-0.1-0.2-0.2l-6.9-8.4c-0.1-0.1-0.1-0.2-0.2-0.2c-0.1-0.1-0.2-0.1-0.3-0.2c-0.1,0-0.2-0.1-0.3-0.1
		c-0.2,0-0.3,0-0.5,0h-2.8v9.2h-0.8L131.1,60.8z M115,60.8h11.5v0.7h-10.8v8.6h9.1v0.6h-9.1v8.9h10.8l0,0.7H115L115,60.8z
		 M95.1,60.8c0.1,0,0.3,0.1,0.3,0.2l7.2,17.5c0.1,0.1,0.1,0.3,0.2,0.4c0,0.2,0.1,0.3,0.1,0.5c0.1-0.3,0.2-0.6,0.3-0.9l7.2-17.5
		c0-0.2,0.2-0.3,0.3-0.2h0.6l-8.1,19.5h-0.7l-8.1-19.5L95.1,60.8z M75,66.4c0.4-1.2,1-2.2,1.9-3.1c0.8-0.9,1.8-1.5,2.9-2
		c1.2-0.5,2.4-0.7,3.7-0.7c1.3,0,2.5,0.2,3.7,0.7c1.1,0.5,2.1,1.1,2.9,2c0.8,0.9,1.5,2,1.9,3.1c0.5,1.3,0.7,2.7,0.7,4.1
		c0,1.4-0.2,2.8-0.7,4.1c-0.4,1.2-1,2.2-1.9,3.1c-0.8,0.9-1.8,1.5-2.9,2c-1.2,0.5-2.4,0.7-3.7,0.7c-1.3,0-2.5-0.2-3.7-0.7
		c-1.1-0.4-2.1-1.1-2.9-2c-0.8-0.9-1.5-2-1.9-3.1c-0.5-1.3-0.7-2.7-0.7-4.1C74.3,69.1,74.5,67.7,75,66.4z M64.8,121.9
		c-1.3-0.4-2.5-1.1-3.6-1.9c-1-0.8-1.8-1.8-2.3-3c-0.6-1.2-0.8-2.6-0.8-4c-0.1-1.9,0.5-3.7,1.6-5.2c1.2-1.5,2.9-2.5,4.7-3
		c-1.6-0.5-2.9-1.6-3.9-2.9c-0.9-1.4-1.3-3-1.3-4.6c0-1.2,0.2-2.4,0.7-3.5c0.5-1.1,1.2-2,2.1-2.8c0.9-0.8,2-1.5,3.2-1.9
		c1.3-0.5,2.7-0.7,4.2-0.7c1.4,0,2.8,0.2,4.2,0.7c1.2,0.4,2.3,1,3.2,1.9c0.9,0.8,1.6,1.7,2.1,2.8c0.5,1.1,0.7,2.3,0.7,3.5
		c0,1.6-0.4,3.2-1.3,4.6c-1,1.4-2.3,2.4-3.9,2.9c1.9,0.5,3.5,1.5,4.7,3c1.1,1.5,1.7,3.4,1.6,5.2c0,1.4-0.3,2.7-0.8,4
		c-0.5,1.2-1.3,2.2-2.3,3c-1.1,0.9-2.3,1.5-3.6,1.9c-1.5,0.5-3,0.7-4.6,0.7C67.8,122.6,66.3,122.4,64.8,121.9L64.8,121.9z
		 M86.8,144.6c0,0.9-0.1,1.8-0.5,2.7c-0.3,0.8-0.7,1.6-1.3,2.2c-0.6,0.6-1.3,1.1-2.1,1.5c-0.9,0.4-1.8,0.6-2.7,0.5
		c-0.9,0-1.9-0.2-2.7-0.5c-0.8-0.3-1.5-0.8-2.1-1.5c-0.6-0.6-1-1.4-1.3-2.2c-0.3-0.9-0.5-1.8-0.5-2.7v-11.1h0.7v11
		c0,0.8,0.1,1.7,0.4,2.5c0.2,0.7,0.6,1.4,1.1,2c0.5,0.6,1.1,1,1.8,1.3c0.8,0.3,1.6,0.5,2.5,0.5c0.8,0,1.7-0.2,2.5-0.5
		c0.7-0.3,1.3-0.8,1.8-1.3c0.5-0.6,0.9-1.3,1.1-2c0.3-0.8,0.4-1.6,0.4-2.5v-11.1h0.7L86.8,144.6z M100.9,148.2
		c-0.2,0.6-0.6,1.2-1.1,1.7c-0.5,0.5-1.1,0.9-1.7,1.1c-0.7,0.3-1.5,0.4-2.3,0.4c-0.5,0-1.1,0-1.6-0.2c-0.5-0.1-0.9-0.2-1.3-0.5
		c-0.4-0.2-0.8-0.4-1.1-0.7c-0.4-0.3-0.7-0.6-1-1l0.2-0.3c0,0,0.1-0.1,0.1-0.1c0,0,0.1,0,0.1,0c0.1,0,0.1,0.1,0.2,0.2
		s0.2,0.2,0.4,0.4s0.4,0.3,0.6,0.5c0.3,0.2,0.5,0.4,0.8,0.5c0.4,0.2,0.7,0.3,1.1,0.4c0.5,0.1,1,0.2,1.4,0.2c0.7,0,1.4-0.1,2.1-0.4
		c0.6-0.2,1.1-0.6,1.5-1c0.4-0.4,0.7-0.9,1-1.5c0.2-0.6,0.3-1.2,0.3-1.8c0-0.6-0.1-1.2-0.4-1.7c-0.3-0.4-0.6-0.8-1-1.1
		c-0.5-0.3-0.9-0.6-1.5-0.7c-0.5-0.2-1.1-0.4-1.7-0.6s-1.1-0.4-1.7-0.6c-0.5-0.2-1-0.5-1.5-0.8c-0.4-0.3-0.8-0.8-1-1.2
		c-0.3-0.6-0.4-1.2-0.4-1.8c0-0.6,0.1-1.1,0.3-1.7c0.2-0.5,0.5-1,1-1.4c0.4-0.4,1-0.8,1.5-1c0.7-0.3,1.4-0.4,2.1-0.4
		c0.8,0,1.6,0.1,2.4,0.4c0.7,0.3,1.4,0.8,1.9,1.3l-0.2,0.3c0,0.1-0.1,0.1-0.2,0.1c-0.1,0-0.2-0.1-0.4-0.2c-0.2-0.2-0.4-0.4-0.7-0.5
		c-0.4-0.2-0.7-0.4-1.1-0.6c-0.6-0.2-1.1-0.3-1.7-0.2c-0.6,0-1.2,0.1-1.8,0.3c-0.5,0.2-1,0.5-1.3,0.8c-0.4,0.3-0.6,0.8-0.8,1.2
		c-0.2,0.5-0.3,0.9-0.3,1.4c0,0.6,0.1,1.1,0.4,1.6c0.3,0.4,0.6,0.8,1,1.1c0.5,0.3,0.9,0.6,1.5,0.7c0.5,0.2,1.1,0.4,1.7,0.6
		c0.6,0.2,1.1,0.4,1.7,0.6c0.5,0.2,1,0.5,1.5,0.8c0.4,0.3,0.8,0.7,1,1.2c0.3,0.6,0.4,1.2,0.4,1.8
		C101.3,146.8,101.2,147.5,100.9,148.2L100.9,148.2z M101.1,121.6c-1.5,0.7-3.1,1-4.8,1c-1.6,0-3.3-0.3-4.8-1
		c-1.5-0.7-2.8-1.8-3.8-3.1c-1.2-1.6-2-3.4-2.6-5.3c-0.7-2.5-1-5-0.9-7.6c0-2.6,0.3-5.1,0.9-7.6c0.5-1.9,1.4-3.7,2.6-5.3
		c1-1.3,2.3-2.4,3.8-3.1c1.5-0.7,3.1-1,4.8-1c1.6,0,3.3,0.3,4.8,1c1.5,0.7,2.8,1.8,3.9,3.1c1.2,1.6,2.1,3.4,2.6,5.3
		c0.7,2.5,1,5,0.9,7.6c0,2.6-0.3,5.1-0.9,7.6c-0.5,1.9-1.4,3.7-2.6,5.3C103.9,119.8,102.6,120.9,101.1,121.6L101.1,121.6z
		 M116.1,151.2h-10.5v-17.7h10.5v0.6h-9.8v7.9h8.2v0.6h-8.2v8.1h9.8L116.1,151.2z M114.7,118.4c-1.2-1.6-2-3.4-2.6-5.3
		c-0.7-2.5-1-5-0.9-7.6c0-2.6,0.3-5.1,0.9-7.6c0.5-1.9,1.4-3.7,2.6-5.3c1-1.3,2.3-2.4,3.8-3.1c1.5-0.7,3.1-1,4.8-1
		c1.6,0,3.3,0.3,4.8,1c1.5,0.7,2.8,1.8,3.9,3.1c1.2,1.6,2.1,3.4,2.6,5.3c0.7,2.5,1,5,0.9,7.6c0,2.6-0.3,5.1-0.9,7.6
		c-0.5,1.9-1.4,3.7-2.6,5.3c-1,1.3-2.3,2.4-3.9,3.1c-1.5,0.7-3.1,1-4.8,1c-1.6,0-3.3-0.3-4.8-1C117,120.9,115.7,119.8,114.7,118.4
		L114.7,118.4z M131.5,151.2c-0.1,0-0.2,0-0.2,0c-0.1,0-0.2-0.1-0.2-0.2l-6.3-7.7c-0.1-0.1-0.1-0.2-0.2-0.2
		c-0.1-0.1-0.2-0.1-0.2-0.1c-0.1,0-0.2-0.1-0.3-0.1c-0.1,0-0.3,0-0.4,0H121v8.3h-0.7v-17.7h4.3c1.5-0.1,3.1,0.3,4.4,1.1
		c1,0.8,1.6,2.1,1.5,3.4c0,0.7-0.1,1.3-0.4,1.9c-0.3,0.6-0.6,1.1-1.1,1.5c-0.5,0.4-1.1,0.8-1.7,1c-0.7,0.3-1.5,0.4-2.2,0.4
		c0.2,0.1,0.3,0.2,0.4,0.4l6.6,8L131.5,151.2z M144,148.2c-0.2,0.6-0.6,1.2-1.1,1.7c-0.5,0.5-1.1,0.9-1.7,1.1
		c-0.7,0.3-1.5,0.4-2.3,0.4c-0.5,0-1.1,0-1.6-0.2c-0.5-0.1-0.9-0.2-1.3-0.5c-0.4-0.2-0.8-0.4-1.1-0.7c-0.4-0.3-0.7-0.6-1-1l0.2-0.3
		c0,0,0.1-0.1,0.1-0.1c0,0,0.1,0,0.1,0c0.1,0,0.1,0.1,0.2,0.2s0.2,0.2,0.4,0.4s0.4,0.3,0.6,0.5c0.3,0.2,0.5,0.4,0.8,0.5
		c0.4,0.2,0.7,0.3,1.1,0.4c0.5,0.1,1,0.2,1.4,0.2c0.7,0,1.4-0.1,2.1-0.4c0.6-0.2,1.1-0.6,1.5-1c0.4-0.4,0.7-0.9,1-1.5
		c0.2-0.6,0.3-1.2,0.3-1.8c0-0.6-0.1-1.2-0.4-1.7c-0.3-0.4-0.6-0.8-1-1.1c-0.5-0.3-0.9-0.6-1.5-0.7c-0.5-0.2-1.1-0.4-1.7-0.6
		s-1.1-0.4-1.7-0.6c-0.5-0.2-1-0.5-1.5-0.8c-0.4-0.3-0.8-0.8-1-1.2c-0.3-0.6-0.4-1.2-0.4-1.8c0-0.6,0.1-1.1,0.3-1.7
		c0.2-0.5,0.5-1,1-1.4c0.4-0.4,1-0.8,1.5-1c0.7-0.3,1.4-0.4,2.1-0.4c0.8,0,1.6,0.1,2.4,0.4c0.7,0.3,1.4,0.8,1.9,1.3l-0.2,0.3
		c0,0.1-0.1,0.1-0.2,0.1c-0.1,0-0.2-0.1-0.4-0.2c-0.2-0.2-0.4-0.4-0.7-0.5c-0.4-0.2-0.7-0.4-1.1-0.6c-0.6-0.2-1.1-0.3-1.7-0.2
		c-0.6,0-1.2,0.1-1.8,0.3c-0.5,0.2-1,0.5-1.3,0.8c-0.4,0.3-0.6,0.8-0.8,1.2c-0.2,0.5-0.3,0.9-0.3,1.4c0,0.6,0.1,1.1,0.4,1.6
		c0.3,0.4,0.6,0.8,1,1.1c0.5,0.3,0.9,0.6,1.5,0.7c0.5,0.2,1.1,0.4,1.7,0.6s1.1,0.4,1.7,0.6c0.5,0.2,1,0.5,1.5,0.8
		c0.4,0.3,0.8,0.7,1,1.2c0.3,0.6,0.4,1.2,0.4,1.8C144.4,146.8,144.3,147.5,144,148.2L144,148.2z M161.5,108.4h-9.4v9.9h-3.7v-9.9
		h-9.3v-3.4h9.3v-9.8h3.7v9.8h9.4V108.4z"/>
	<path id="Path_82" class="st0" d="M75.6,115.4c0.3-0.8,0.5-1.6,0.4-2.4c0-1-0.2-1.9-0.5-2.8c-0.3-0.7-0.8-1.4-1.4-1.9
		c-0.6-0.5-1.3-0.9-2.1-1.1c-0.8-0.2-1.7-0.4-2.6-0.4c-0.9,0-1.7,0.1-2.6,0.4c-0.8,0.2-1.5,0.6-2.1,1.1c-0.6,0.5-1.1,1.2-1.4,1.9
		c-0.4,0.9-0.5,1.8-0.5,2.8c0,0.8,0.1,1.7,0.4,2.4c0.3,0.7,0.7,1.4,1.3,1.9c0.6,0.6,1.3,1,2.1,1.2c0.9,0.3,1.9,0.5,2.8,0.4
		c1,0,1.9-0.1,2.8-0.4c0.8-0.3,1.5-0.7,2.1-1.2C74.9,116.8,75.3,116.1,75.6,115.4z"/>
	<path id="Path_83" class="st0" d="M66.7,102.7c0.8,0.3,1.8,0.5,2.7,0.5c0.9,0,1.8-0.1,2.7-0.5c0.7-0.3,1.3-0.7,1.8-1.3
		c0.5-0.5,0.8-1.2,1-1.8c0.2-0.7,0.3-1.4,0.3-2.1c0-0.7-0.1-1.4-0.4-2.1c-0.2-0.6-0.6-1.2-1.1-1.7c-0.5-0.5-1.1-0.9-1.8-1.2
		c-0.8-0.3-1.7-0.4-2.5-0.4c-0.9,0-1.7,0.1-2.5,0.4c-0.7,0.3-1.3,0.7-1.8,1.2c-0.5,0.5-0.8,1.1-1.1,1.7c-0.2,0.7-0.4,1.4-0.4,2.1
		c0,0.7,0.1,1.4,0.3,2.1c0.2,0.7,0.5,1.3,1,1.8C65.4,101.9,66,102.4,66.7,102.7z"/>
</g>
</svg>
