<?xml version="1.0" encoding="utf-8"?>
<!-- Generator: Adobe Illustrator 22.1.0, SVG Export Plug-In . SVG Version: 6.00 Build 0)  -->
<svg version="1.1" id="Layer_1" xmlns="http://www.w3.org/2000/svg" xmlns:xlink="http://www.w3.org/1999/xlink" x="0px" y="0px"
	 viewBox="0 0 214.9 211.8" style="enable-background:new 0 0 214.9 211.8;" xml:space="preserve">
<style type="text/css">
	.st0{fill:#D8C070;}
</style>
<g id="Group_165" transform="translate(0)">
	<path id="Path_93" class="st0" d="M209.5,109.4c2.3-5,5.7-9.7,5.4-15.2c-0.2-2.5-1.2-4.9-2.8-6.8c-0.3-0.4-0.7-0.7-1.1-1
		c-10.3-7.5-13.8-17.2-11.6-29.8c1.5-8.5-2.8-13.6-12.1-15.5c-11-2.2-17.9-8.2-21.6-18.9c-3.3-9.8-8.7-12.6-18.8-9.8
		c-9.9,2.8-20.5,0.2-28-6.8c-7.9-7.4-13.4-7.4-21.2-0.1c-8.3,7.8-17.4,10-28.4,6.9c-9.5-2.7-15.1,0.1-18.2,9.2
		C47.3,32.5,40.3,39,28.8,41.2C19.4,42.9,15.4,48.6,17,58c2,11.3-1.5,20-10.2,27.2c-8.1,6.7-8.9,12.2-2.6,20.5
		c7,9.1,8,18.4,3.5,28.9c-3.8,9-1.6,15,7.2,19.1c10.5,4.9,16.1,12.6,16.9,24.3c0.6,9.2,5.8,13.8,15,13.3c12.1-0.7,21,3.9,26.9,14.4
		c4.7,5.3,10.5,7.2,17.4,5.4c10.3-6.9,20.6-7.9,30.9-1.9c2.5,1.5,5.2,2.3,8.1,2.4h0.3c5.4-0.1,10.3-2.9,13.1-7.4l0-0.1
		c5.7-9.1,13.7-13.2,24.4-12.9c11.5,0.3,15.5-3.3,16.7-15c1-10.3,6-17.3,15.2-21.9c10.7-5.4,12.6-10.1,8.2-21.3
		C204.8,124.9,205,117.1,209.5,109.4z M109.4,191.3c-47.8,0.3-86.7-37.4-86.9-84C22.4,60,60.4,22,108,21.7
		c47-0.3,85.4,37.6,85.8,84.6C194.1,152.3,155.7,191,109.4,191.3z"/>
	<path id="Path_94" class="st0" d="M93.8,62c-0.1,0.3-0.2,0.6-0.3,0.8l-4.4,10.7h9.4l-4.4-10.7C94,62.6,93.9,62.3,93.8,62z"/>
	<path id="Path_95" class="st0" d="M107.8,32.3c-41.3,0.2-74.9,33.7-74.6,74.4c0.3,41.1,33.9,74.2,75,74
		c41.6-0.1,75.1-33.4,74.9-74.6C182.9,65.2,149.1,32.1,107.8,32.3z M117.7,66.8c0.4-1.2,1.1-2.2,1.9-3.1c0.8-0.9,1.8-1.6,2.9-2
		c1.2-0.5,2.5-0.7,3.8-0.7c1.2,0,2.3,0.2,3.4,0.6c1,0.4,2,1,2.8,1.7l-0.2,0.3c0,0.1-0.1,0.1-0.2,0.1c-0.1,0-0.2-0.1-0.3-0.2
		c-0.1-0.1-0.3-0.2-0.5-0.4s-0.5-0.3-0.8-0.5c-0.3-0.2-0.7-0.4-1.1-0.5c-0.5-0.2-0.9-0.3-1.4-0.4c-0.6-0.1-1.1-0.2-1.7-0.2
		c-1.2,0-2.3,0.2-3.4,0.6c-1,0.4-1.9,1-2.7,1.8c-0.8,0.8-1.4,1.8-1.8,2.9c-0.4,1.2-0.6,2.5-0.6,3.8c0,1.3,0.2,2.6,0.6,3.9
		c0.4,1.1,1,2.1,1.7,2.9c0.7,0.8,1.6,1.4,2.6,1.8c1,0.4,2.2,0.6,3.3,0.6c0.7,0,1.3,0,2-0.2c0.6-0.1,1.1-0.2,1.6-0.5
		c0.5-0.2,0.9-0.4,1.4-0.7c0.4-0.3,0.8-0.6,1.2-1c0-0.1,0.1-0.1,0.2-0.1c0.1,0,0.1,0,0.1,0.1l0.3,0.3c-0.4,0.4-0.8,0.8-1.3,1.1
		c-0.5,0.3-1,0.6-1.5,0.9c-0.6,0.2-1.2,0.4-1.8,0.6c-0.7,0.1-1.5,0.2-2.2,0.2c-1.2,0-2.5-0.2-3.6-0.7c-1.1-0.4-2.1-1.1-2.8-2
		c-0.8-0.9-1.5-2-1.9-3.1c-0.5-1.3-0.7-2.7-0.7-4.1C117,69.5,117.2,68.1,117.7,66.8L117.7,66.8z M101.2,61.2h14.9v0.7H109v18.6h-0.8
		V61.8h-7.1V61.2z M82,98h0.7v17.5H82L82,98z M72.9,76.8h-0.1c-0.1,0-0.3-0.1-0.3-0.2L64,62.4c0,0.1,0,0.2,0,0.2s0,0.2,0,0.2v17.7
		h-0.7V61.2h0.5c0.1,0,0.1,0,0.2,0c0.1,0,0.1,0.1,0.1,0.1l8.4,14.2c0.1,0.2,0.2,0.3,0.2,0.5c0-0.1,0.1-0.2,0.1-0.3s0.1-0.2,0.1-0.3
		l8.1-14.2c0-0.1,0.1-0.1,0.1-0.1c0.1,0,0.1,0,0.2,0h0.5v19.3h-0.7V62.8c0-0.1,0-0.1,0-0.2s0-0.1,0-0.2l-8.1,14.2
		C73.1,76.7,73,76.8,72.9,76.8L72.9,76.8z M84.1,147.7c-0.2,0.6-0.6,1.2-1.1,1.7c-0.5,0.5-1.1,0.9-1.7,1.1c-0.7,0.3-1.5,0.4-2.3,0.4
		c-0.5,0-1.1,0-1.6-0.2c-0.5-0.1-0.9-0.2-1.3-0.4c-0.4-0.2-0.8-0.4-1.1-0.7c-0.3-0.3-0.7-0.6-1-1l0.2-0.2c0,0,0.1-0.1,0.1-0.1
		c0,0,0.1,0,0.1,0c0.1,0,0.1,0.1,0.2,0.2s0.2,0.2,0.4,0.4s0.4,0.3,0.6,0.5c0.3,0.2,0.5,0.4,0.8,0.5c0.4,0.2,0.7,0.3,1.1,0.4
		c0.5,0.1,0.9,0.2,1.4,0.2c0.7,0,1.4-0.1,2-0.4c0.6-0.2,1.1-0.5,1.5-1c0.4-0.4,0.7-0.9,0.9-1.4c0.2-0.6,0.3-1.2,0.3-1.8
		c0-0.6-0.1-1.1-0.4-1.6c-0.3-0.4-0.6-0.8-1-1.1c-0.4-0.3-0.9-0.6-1.4-0.7c-0.5-0.2-1.1-0.4-1.7-0.6c-0.6-0.2-1.1-0.4-1.7-0.6
		c-0.5-0.2-1-0.5-1.4-0.8c-0.4-0.3-0.8-0.7-1-1.2c-0.3-0.6-0.4-1.2-0.4-1.8c0-0.6,0.1-1.1,0.3-1.6c0.2-0.5,0.5-1,0.9-1.4
		c0.4-0.4,1-0.7,1.5-1c0.7-0.3,1.4-0.4,2.1-0.4c0.8,0,1.6,0.1,2.3,0.4c0.7,0.3,1.4,0.8,1.9,1.3l-0.2,0.3c0,0.1-0.1,0.1-0.2,0.1
		c-0.1,0-0.2-0.1-0.4-0.2c-0.5-0.5-1.1-0.9-1.8-1.1c-0.5-0.2-1.1-0.3-1.7-0.2c-0.6,0-1.2,0.1-1.8,0.3c-0.5,0.2-0.9,0.5-1.3,0.8
		c-0.4,0.3-0.6,0.7-0.8,1.2c-0.2,0.5-0.3,0.9-0.3,1.4c0,0.6,0.1,1.1,0.4,1.6c0.3,0.4,0.6,0.8,1,1.1c0.4,0.3,0.9,0.6,1.4,0.7
		c0.5,0.2,1.1,0.4,1.7,0.6c0.6,0.2,1.1,0.4,1.7,0.6c0.5,0.2,1,0.5,1.4,0.8c0.9,0.7,1.5,1.8,1.4,3C84.4,146.4,84.3,147,84.1,147.7
		L84.1,147.7z M99.9,133.7h-6.4v16.9h-0.7v-16.9h-6.5v-0.6h13.6L99.9,133.7z M101.4,115.5h-0.3c-0.1,0-0.2-0.1-0.3-0.2l-12-16.3
		c0,0.1,0,0.2,0,0.2s0,0.2,0,0.2v16h-0.6V98h0.3c0.1,0,0.1,0,0.2,0c0.1,0,0.1,0.1,0.1,0.1l12,16.2c0-0.1,0-0.1,0-0.2s0-0.1,0-0.2V98
		h0.6L101.4,115.5z M101.6,80.5c-0.1,0-0.3-0.1-0.3-0.2l-2.5-6.1h-9.9l-2.5,6.1c0,0.1-0.2,0.2-0.3,0.2h-0.6l8-19.3h0.7l8,19.3H101.6
		z M113.4,150.7H103v-17.6h10.4v0.6h-9.7v7.8h8.2v0.6h-8.2v8h9.7L113.4,150.7z M127.4,140.3c-0.3,0.6-0.7,1.2-1.2,1.6
		c-0.6,0.5-1.2,0.8-1.9,1.1c-0.8,0.3-1.6,0.4-2.5,0.4h-3.5v7.3h-0.7v-17.6h4.2c1.6-0.1,3.2,0.3,4.5,1.3c1.1,1,1.6,2.4,1.5,3.8
		C127.8,138.9,127.7,139.6,127.4,140.3L127.4,140.3z M126.4,121.7c-1.4,0.5-2.8,0.7-4.3,0.7c-1.5,0-3-0.2-4.5-0.6
		c-1.2-0.4-2.2-1-3.2-1.8c-0.9-0.8-1.6-1.7-2.2-2.7c-0.6-1.1-1.1-2.3-1.5-3.5l2-0.8c0.5-0.2,1-0.3,1.5-0.2c0.5,0.1,0.8,0.4,1,0.8
		c0.2,0.5,0.5,1,0.8,1.6c0.3,0.6,0.7,1.2,1.2,1.6c0.6,0.5,1.2,1,1.9,1.3c0.9,0.4,1.9,0.6,2.9,0.5c1,0,2-0.2,2.9-0.5
		c0.8-0.3,1.5-0.8,2.1-1.4c1-1.1,1.6-2.5,1.7-4c0-0.8-0.1-1.6-0.3-2.4c-0.2-0.7-0.6-1.4-1.2-1.9c-0.7-0.6-1.6-1-2.5-1.2
		c-1.4-0.3-2.8-0.5-4.2-0.4v-3.3c1.2,0,2.4-0.1,3.6-0.4c0.9-0.2,1.7-0.6,2.4-1.1c0.6-0.5,1-1.1,1.3-1.7c0.3-0.7,0.4-1.5,0.4-2.3
		c0-0.8-0.1-1.6-0.4-2.4c-0.3-0.6-0.7-1.2-1.2-1.7c-0.5-0.5-1.1-0.8-1.8-1c-0.7-0.2-1.5-0.3-2.2-0.3c-0.7,0-1.5,0.1-2.2,0.3
		c-0.6,0.2-1.3,0.5-1.8,1c-0.5,0.4-1,0.9-1.3,1.5c-0.4,0.6-0.6,1.2-0.8,1.8c-0.1,0.5-0.4,0.9-0.8,1.2c-0.4,0.2-0.9,0.3-1.4,0.1
		l-2.4-0.4c0.2-1.4,0.6-2.8,1.3-4c1.2-2.3,3.2-4,5.6-4.7c1.3-0.4,2.6-0.6,4-0.6c1.3,0,2.7,0.2,3.9,0.6c1.1,0.4,2.2,1,3.1,1.7
		c0.8,0.7,1.5,1.7,2,2.7c0.5,1.1,0.7,2.3,0.7,3.4c0,0.9-0.1,1.9-0.4,2.8c-0.2,0.8-0.6,1.5-1.1,2.1c-0.5,0.6-1.1,1.1-1.8,1.6
		c-0.7,0.4-1.5,0.8-2.3,1c1.8,0.4,3.5,1.4,4.7,2.8c1.1,1.4,1.7,3.2,1.6,5c0,1.4-0.3,2.9-0.9,4.2c-0.6,1.2-1.4,2.3-2.4,3.1
		C128.9,120.6,127.7,121.3,126.4,121.7L126.4,121.7z M140.3,147.7c-0.2,0.6-0.6,1.2-1.1,1.7c-0.5,0.5-1.1,0.9-1.7,1.1
		c-0.7,0.3-1.5,0.4-2.3,0.4c-0.5,0-1.1,0-1.6-0.2c-0.5-0.1-0.9-0.2-1.3-0.4c-0.4-0.2-0.8-0.4-1.1-0.7c-0.3-0.3-0.7-0.6-1-1l0.2-0.2
		c0,0,0.1-0.1,0.1-0.1c0,0,0.1,0,0.1,0c0.1,0,0.1,0.1,0.2,0.2s0.2,0.2,0.4,0.4s0.4,0.3,0.6,0.5c0.3,0.2,0.5,0.4,0.8,0.5
		c0.4,0.2,0.7,0.3,1.1,0.4c0.5,0.1,0.9,0.2,1.4,0.2c0.7,0,1.4-0.1,2-0.4c0.6-0.2,1.1-0.5,1.5-1c0.4-0.4,0.7-0.9,0.9-1.4
		c0.2-0.6,0.3-1.2,0.3-1.8c0-0.6-0.1-1.1-0.4-1.6c-0.3-0.4-0.6-0.8-1-1.1c-0.4-0.3-0.9-0.6-1.4-0.7c-0.5-0.2-1.1-0.4-1.7-0.6
		s-1.1-0.4-1.7-0.6c-0.5-0.2-1-0.5-1.4-0.8c-0.4-0.3-0.8-0.7-1-1.2c-0.3-0.6-0.4-1.2-0.4-1.8c0-0.6,0.1-1.1,0.3-1.6
		c0.2-0.5,0.5-1,0.9-1.4c0.4-0.4,1-0.7,1.5-1c0.7-0.3,1.4-0.4,2.1-0.4c0.8,0,1.6,0.1,2.3,0.4c0.7,0.3,1.4,0.8,1.9,1.3L140,135
		c0,0.1-0.1,0.1-0.2,0.1c-0.1,0-0.2-0.1-0.4-0.2c-0.2-0.2-0.4-0.4-0.7-0.5c-0.3-0.2-0.7-0.4-1.1-0.5c-0.5-0.2-1.1-0.3-1.7-0.2
		c-0.6,0-1.2,0.1-1.8,0.3c-0.5,0.2-0.9,0.5-1.3,0.8c-0.4,0.3-0.6,0.7-0.8,1.2c-0.2,0.5-0.3,0.9-0.3,1.4c0,0.6,0.1,1.1,0.4,1.6
		c0.3,0.4,0.6,0.8,1,1.1c0.4,0.3,0.9,0.6,1.4,0.7c0.5,0.2,1.1,0.4,1.7,0.6s1.1,0.4,1.7,0.6c0.5,0.2,1,0.5,1.4,0.8
		c0.9,0.7,1.5,1.8,1.4,3C140.7,146.4,140.5,147.1,140.3,147.7L140.3,147.7z M151.5,80.5h-0.8V71h-13v9.5H137V61.2h0.8v9.2h13v-9.2
		h0.8L151.5,80.5z"/>
	<path id="Path_96" class="st0" d="M121.7,133.7h-3.5v9.1h3.5c0.8,0,1.5-0.1,2.2-0.3c0.6-0.2,1.2-0.5,1.7-1c0.5-0.4,0.8-0.9,1.1-1.4
		c0.3-0.6,0.4-1.2,0.4-1.8c0.1-1.3-0.4-2.5-1.3-3.4C124.6,134,123.2,133.6,121.7,133.7z"/>
</g>
</svg>
