<svg xmlns="http://www.w3.org/2000/svg" width="120.986" height="118.485" viewBox="0 0 120.986 118.485">
  <g id="Group_52" data-name="Group 52" transform="translate(550.681 -1039.394)">
    <g id="GWVRfQ" transform="translate(-550.681 1039.394)">
      <g id="Group_51" data-name="Group 51" transform="translate(0 0)">
        <path id="Path_31" data-name="Path 31" d="M-490.214,1157.841c-18.134,0-36.268-.023-54.4.038-1.611.005-2.436-.884-3.433-1.818a7.7,7.7,0,0,1-2.632-5.874q.015-31.233,0-62.467a7.942,7.942,0,0,1,3.087-6.441q6.964-5.737,13.855-11.562a2.4,2.4,0,0,0,.679-1.626c.06-3.54.023-7.082.033-10.624.01-3.462,2.02-5.441,5.51-5.442,5.547,0,11.094.021,16.64-.028a3.7,3.7,0,0,0,1.978-.636c4.812-3.388,9.581-6.838,14.37-10.26a7.586,7.586,0,0,1,9.594,0c4.789,3.421,9.559,6.869,14.371,10.257a3.7,3.7,0,0,0,1.977.637c5.291.051,10.582.023,15.873.031a4.936,4.936,0,0,1,5.316,5.245q.054,4.607-.015,9.216a2.648,2.648,0,0,0,.943,2.218q7.152,6.5,14.229,13.078a7.747,7.747,0,0,1,2.5,5.944q-.017,22.593,0,45.186c0,5.59-.122,11.183.04,16.768.1,3.442-1.716,5.693-4.06,7.7a3.645,3.645,0,0,1-2.181.445Q-463.077,1157.858-490.214,1157.841Zm-37.774-100.749a6.376,6.376,0,0,0-.086.707q-.006,18.561.03,37.122a2.01,2.01,0,0,0,.824,1.381q17.747,12.123,35.528,24.2a1.362,1.362,0,0,0,1.8-.006q18.312-12.083,36.662-24.109a1.728,1.728,0,0,0,.912-1.637q-.039-18.113-.02-36.226v-1.43Zm85.805,95.741c-.526-.476-.8-.74-1.088-.981q-18.163-15.08-36.31-30.178a2.01,2.01,0,0,0-2.893-.128c-2.751,1.917-5.591,3.707-8.383,5.541-2.739-1.859-5.4-3.625-8.015-5.468a1.336,1.336,0,0,0-1.961.062q-18.037,15.032-36.121,30.007c-.367.305-.714.636-1.283,1.146Zm6.731-.994.613-.072c.331-6.774.1-13.565.142-20.347.043-6.866.01-13.733.01-20.6v-20.677l-41.89,27.562Zm-68.7-33.871-41.481-27.9c-.048.843-.09,1.252-.09,1.66,0,2.9,0,5.8,0,8.7q0,24.578.014,49.157a15.878,15.878,0,0,0,.44,2.5Zm68.094-32.855-11.24-10.4v17.77Zm-97.03-9.389-11.282,9.406,11.282,7.531Zm54.721-23.765c-3.308-2.371-6.312-4.528-9.32-6.679-1.66-1.188-2.393-1.2-4.028-.033q-4.114,2.929-8.214,5.876c-.29.208-.554.454-1.015.836Z" transform="translate(550.681 -1039.394)" fill="#fff"/>
      </g>
    </g>
    <path id="Path_32" data-name="Path 32" d="M-366.059,1191.212l-14.733-14.733a10.244,10.244,0,0,1,0-14.487,10.244,10.244,0,0,1,14.487,0l.246.246.246-.246a10.244,10.244,0,0,1,14.486,0,10.244,10.244,0,0,1,0,14.487Z" transform="translate(-124.151 -88.97)" fill="#fff"/>
  </g>
</svg>
