<?xml version="1.0" encoding="utf-8"?>
<!-- Generator: Adobe Illustrator 22.1.0, SVG Export Plug-In . SVG Version: 6.00 Build 0)  -->
<svg version="1.1" id="Layer_1" xmlns="http://www.w3.org/2000/svg" xmlns:xlink="http://www.w3.org/1999/xlink" x="0px" y="0px"
	 viewBox="0 0 31.4 28.9" style="enable-background:new 0 0 31.4 28.9;" xml:space="preserve">
<style type="text/css">
	.st0{fill:#FFFFFF;}
</style>
<path class="st0" d="M31.4,12.8c0-7-7-12.8-15.7-12.8C7,0,0,5.7,0,12.8s7,12.8,15.7,12.8c2,0,3.9-0.3,5.8-0.9l9.9,4.3L28,20.6
	C30.1,18.5,31.3,15.7,31.4,12.8z M7.9,14.4c-1,0-1.8-0.8-1.8-1.9s0.8-1.8,1.8-1.8s1.9,0.8,1.9,1.8S9,14.4,7.9,14.4z M15.7,14.4
	c-1,0-1.8-0.8-1.8-1.9s0.8-1.8,1.8-1.8s1.9,0.8,1.9,1.8S16.7,14.4,15.7,14.4z M23.4,14.4c-1,0-1.8-0.8-1.8-1.9s0.8-1.8,1.8-1.8
	s1.9,0.8,1.9,1.8S24.5,14.4,23.4,14.4z"/>
</svg>
