<svg xmlns="http://www.w3.org/2000/svg" width="18.705" height="33.22" viewBox="0 0 18.705 33.22">
  <g id="Group_50" data-name="Group 50" transform="translate(502.33 -433.594)">
    <path id="Path_29" data-name="Path 29" d="M-485.9,433.595l-10.325.11h0l-3.888.041a1.047,1.047,0,0,0-.994.754,30.417,30.417,0,0,0-1.217,8.486c.013,4.668,1.238,8.339,3.545,10.615a8,8,0,0,0,4.8,2.3l.04,8.754-5.741.061a1.047,1.047,0,0,0-1.036,1.058,1.047,1.047,0,0,0,1.058,1.036l6.771-.072,6.788-.072a1.047,1.047,0,0,0,.267-.037,1.047,1.047,0,0,0,.768-1.021,1.047,1.047,0,0,0-1.058-1.036l-5.724.061-.039-8.751a8.243,8.243,0,0,0,1.11-.223c4.5-1.239,7.178-6.046,7.16-12.859a30.228,30.228,0,0,0-1.264-8.462,1.048,1.048,0,0,0-1.014-.747m.184,9.214c.016,5.811-2.086,9.861-5.621,10.834a6.349,6.349,0,0,1-1.616.222,5.988,5.988,0,0,1-4.358-1.756A10.563,10.563,0,0,1-500.023,446a24.608,24.608,0,0,0,3.911-.749,45.049,45.049,0,0,0,5.356-1.939,22.247,22.247,0,0,1,5.006-1.652Q-485.722,442.238-485.719,442.809Zm-.208-3.235a23.371,23.371,0,0,0-5.627,1.8,30.706,30.706,0,0,1-8.66,2.539q-.019-.46-.021-.937a28.241,28.241,0,0,1,.927-7.149l1.721-.018c-.137.64-.246,1.29-.326,1.816a1.047,1.047,0,0,0,.878,1.192,1.042,1.042,0,0,0,.435-.025,1.047,1.047,0,0,0,.758-.853c.125-.822.265-1.56.408-2.153l8.755-.093A28.511,28.511,0,0,1-485.927,439.574Z" fill="#fff"/>
    <path id="Path_30" data-name="Path 30" d="M-463.842,491.749a1.047,1.047,0,0,1,1.287.732,1.047,1.047,0,0,1-.732,1.287,1.047,1.047,0,0,1-1.287-.732,1.047,1.047,0,0,1,.732-1.287" transform="translate(-33.769 -52.032)" fill="#fff"/>
  </g>
</svg>
